<svg xmlns="http://www.w3.org/2000/svg" viewBox="0 0 100 100">
  <polygon points="50,8 62,8 62,28 50,8 38,28 50,8" fill="#374151"/>
  <polygon points="50,8 74,18 50,28 26,18" fill="#374151"/>
  <ellipse cx="50" cy="28" rx="14" ry="4" fill="#4B5563"/>
  <rect x="36" y="24" width="28" height="14" fill="#4B5563"/>
  <ellipse cx="50" cy="24" rx="14" ry="4" fill="#6B7280"/>
  <line x1="74" y1="18" x2="74" y2="30" stroke="#FBBF24" stroke-width="2"/>
  <circle cx="74" cy="32" r="3" fill="#FBBF24"/>
  <rect x="30" y="36" width="40" height="34" rx="10" fill="#4B5563"/>
  <polygon points="38,68 30,80 46,68" fill="#4B5563"/>
  <polygon points="50,42 53,51 63,51 55,57 58,66 50,60 42,66 45,57 37,51 47,51" fill="#FBBF24"/>
</svg>